<svg width="100" height="100" viewBox="0 0 100 100" fill="none" xmlns="http://www.w3.org/2000/svg">
  <path d="M 0 35 C 0 5 5 0 35 0 H 65 C 95 0 100 5 100 35 V 65 C 100 95 95 100 65 100 H 35 C 5 100 0 95 0 65 Z" fill="#00FF00"/>
  <path d="M28 25H84L80 40H44L41 55H74L71 68H40L35 88H18L28 25Z" fill="black"/>
  <circle cx="68" cy="74" r="18" fill="#00FF00"/>
  <path d="M68 56C58.0589 56 50 64.0589 50 74C50 83.9411 58.0589 92 68 92C77.9411 92 86 83.9411 86 74C86 64.0589 77.9411 56 68 56ZM68 60.5L76.5 67.5L73.5 77.5H62.5L59.5 67.5L68 60.5ZM76.5 67.5L83 69.5L83.5 78L77.5 83.5L73.5 77.5L76.5 67.5ZM59.5 67.5L53 69.5L52.5 78L58.5 83.5L62.5 77.5L59.5 67.5ZM73.5 77.5L77.5 83.5H58.5L62.5 77.5H73.5Z" fill="black"/>
</svg>
